<svg width="30" height="30" viewBox="0 0 30 30" fill="none" xmlns="http://www.w3.org/2000/svg">
<path d="M14.0025 0.00806562C13.9381 0.0139244 13.733 0.0344302 13.5485 0.0490772C9.29206 0.432829 5.30515 2.72948 2.78 6.25941C1.37389 8.22211 0.474563 10.4485 0.134752 12.8066C0.014647 13.6298 0 13.8729 0 14.989C0 16.1051 0.014647 16.3483 0.134752 17.1714C0.949126 22.7988 4.95362 27.5269 10.3847 29.2786C11.3573 29.5921 12.3826 29.8059 13.5485 29.9348C14.0025 29.9846 15.9652 29.9846 16.4193 29.9348C18.4318 29.7122 20.1367 29.2142 21.8182 28.3559C22.076 28.2241 22.1258 28.1889 22.0906 28.1596C22.0672 28.142 20.9687 26.6685 19.6504 24.8875L17.2542 21.6505L14.2515 17.2066C12.5994 14.7635 11.2401 12.7656 11.2284 12.7656C11.2167 12.7627 11.205 14.7371 11.1991 17.148C11.1903 21.3693 11.1874 21.5392 11.1347 21.6388C11.0585 21.7823 10.9999 21.8409 10.8769 21.9053C10.7831 21.9522 10.7011 21.961 10.2588 21.961H9.75198L9.61723 21.876C9.52935 21.8204 9.4649 21.7472 9.42096 21.6622L9.35944 21.5304L9.3653 15.6569L9.37409 9.78055L9.4649 9.6663C9.51177 9.60478 9.61137 9.52569 9.68167 9.48761C9.80178 9.42902 9.84865 9.42316 10.3554 9.42316C10.953 9.42316 11.0526 9.4466 11.2079 9.6165C11.2518 9.66337 12.8777 12.1124 14.8228 15.0623C16.7679 18.0122 19.4278 22.0401 20.7343 24.0174L23.1071 27.6118L23.2272 27.5327C24.2906 26.8414 25.4155 25.8571 26.306 24.8318C28.2014 22.6553 29.4229 20.0012 29.833 17.1714C29.9531 16.3483 29.9678 16.1051 29.9678 14.989C29.9678 13.8729 29.9531 13.6298 29.833 12.8066C29.0187 7.17924 25.0142 2.45119 19.5831 0.699404C18.6251 0.388888 17.6057 0.175041 16.4632 0.0461478C16.182 0.0168538 14.2457 -0.0153696 14.0025 0.00806562ZM20.1367 9.07163C20.2773 9.14194 20.3916 9.27669 20.4326 9.4173C20.456 9.49347 20.4619 11.1222 20.456 14.7928L20.4472 20.0598L19.5186 18.6361L18.5871 17.2124V13.3837C18.5871 10.9084 18.5988 9.5169 18.6164 9.44953C18.6632 9.28548 18.7658 9.15659 18.9064 9.08042C19.0265 9.0189 19.0704 9.01305 19.5303 9.01305C19.9639 9.01305 20.04 9.0189 20.1367 9.07163Z" fill="black"/>
<path d="M22.9607 27.6763C22.8581 27.7407 22.8259 27.7847 22.9167 27.7349C22.9812 27.6968 23.0866 27.6177 23.0691 27.6147C23.0603 27.6147 23.0105 27.644 22.9607 27.6763ZM22.7585 27.8081C22.7058 27.8491 22.7058 27.852 22.7703 27.8198C22.8054 27.8022 22.8347 27.7817 22.8347 27.7759C22.8347 27.7524 22.8201 27.7583 22.7585 27.8081ZM22.6121 27.896C22.5593 27.937 22.5593 27.9399 22.6238 27.9077C22.6589 27.8901 22.6882 27.8696 22.6882 27.8637C22.6882 27.8403 22.6736 27.8462 22.6121 27.896ZM22.4656 27.9839C22.4129 28.0249 22.4129 28.0278 22.4773 27.9956C22.5125 27.978 22.5418 27.9575 22.5418 27.9516C22.5418 27.9282 22.5271 27.9341 22.4656 27.9839ZM22.243 28.101C22.1317 28.1596 22.1375 28.1831 22.2488 28.1274C22.2986 28.101 22.3367 28.0747 22.3367 28.0688C22.3367 28.0483 22.3338 28.0512 22.243 28.101Z" fill="black"/>
</svg>
