<svg width="30" height="29" viewBox="0 0 30 29" fill="none" xmlns="http://www.w3.org/2000/svg">
<path d="M20.7869 19.8906C21.894 19.776 22.7339 18.8216 22.6957 17.6762C22.6576 16.5309 21.7031 15.6146 20.5578 15.6146H20.4815C19.2979 15.6529 18.3818 16.6454 18.42 17.8289C18.4582 18.4016 18.6871 18.8979 19.0307 19.2415C17.7328 21.7995 15.7476 23.6701 12.7699 25.2354C10.7465 26.3044 8.64683 26.6862 6.54717 26.419C4.8292 26.1899 3.49302 25.4264 2.65302 24.1664C1.43145 22.2957 1.31696 20.2723 2.34774 18.2489C3.07314 16.7981 4.2183 15.7291 4.94369 15.1946C4.79099 14.6984 4.56189 13.8585 4.4474 13.2477C-1.08821 17.2563 -0.515511 22.6775 1.16426 25.2354C2.42403 27.1444 4.98189 28.3279 7.80694 28.3279C8.57042 28.3279 9.3339 28.2514 10.0975 28.0607C14.9841 27.1062 18.6873 24.2046 20.7869 19.8906ZM27.506 15.1566C24.6045 11.7587 20.3288 9.88805 15.4422 9.88805H14.8314C14.4878 9.20086 13.7624 8.74266 12.9608 8.74266H12.8843C11.701 8.78086 10.7848 9.77344 10.8229 10.957C10.8611 12.1023 11.8155 13.0186 12.9608 13.0186H13.037C13.8769 12.9804 14.6023 12.4459 14.9077 11.7205H15.5949C18.4964 11.7205 21.245 12.5604 23.7266 14.2021C25.6353 15.462 27.0097 17.1036 27.7732 19.0888C28.4222 20.6923 28.384 22.2575 27.6968 23.5938C26.6279 25.6172 24.8337 26.7244 22.4667 26.7244C20.9396 26.7244 19.4889 26.2662 18.7253 25.9226C18.3055 26.3044 17.5419 26.9152 17.0074 27.2971C18.6491 28.0605 20.3288 28.4805 21.9322 28.4805C25.5971 28.4805 28.3077 26.4571 29.3385 24.4337C30.4455 22.2193 30.3691 18.4016 27.506 15.1566ZM8.11233 20.5395C8.15054 21.6848 9.10492 22.601 10.2502 22.601H10.3266C11.5101 22.5629 12.4263 21.5702 12.3881 20.3868C12.35 19.2414 11.3955 18.3252 10.2502 18.3252H10.1739C10.0975 18.3252 9.98289 18.3252 9.90672 18.3633C8.34144 15.7672 7.69245 12.9422 7.92155 9.88793C8.07413 7.59727 8.83773 5.61199 10.1739 3.97031C11.281 2.55773 13.4188 1.87055 14.8696 1.83246C18.9162 1.75605 20.6341 6.79547 20.7487 8.81894C21.245 8.93344 22.0849 9.20074 22.6576 9.39164C22.1994 3.20695 18.3818 0 14.7169 0C11.281 0 8.11234 2.48156 6.85245 6.1466C5.09639 11.0333 6.24166 15.7291 8.37952 19.4324C8.18874 19.6996 8.07413 20.1196 8.11233 20.5396V20.5395Z" fill="#764ABC"/>
</svg>
