<svg width="221" height="15" viewBox="0 0 221 15" fill="none" xmlns="http://www.w3.org/2000/svg">
<path d="M7.56 3.496L8.208 4.528L2.56 7.992L8.208 11.488L7.488 12.472L1.408 8.672V7.296L7.56 3.496ZM17.0178 5.384C17.0178 4.81333 16.9058 4.36267 16.6818 4.032C16.4578 3.696 16.1511 3.456 15.7618 3.312C15.3724 3.16267 14.9271 3.088 14.4258 3.088H12.8338V7.792H14.3698C14.8871 7.792 15.3431 7.72267 15.7378 7.584C16.1324 7.44 16.4444 7.19467 16.6738 6.848C16.9031 6.496 17.0178 6.008 17.0178 5.384ZM18.5058 5.368C18.5058 6.22667 18.3218 6.91467 17.9538 7.432C17.5911 7.94933 17.0898 8.32533 16.4498 8.56C15.8098 8.79467 15.0738 8.912 14.2418 8.912H12.8338V13H11.4418V1.984H14.2578C15.5698 1.984 16.6044 2.26133 17.3618 2.816C18.1244 3.36533 18.5058 4.216 18.5058 5.368ZM24.0035 4.4C24.7982 4.4 25.4622 4.58133 25.9955 4.944C26.5342 5.30133 26.9368 5.808 27.2035 6.464C27.4755 7.12 27.6115 7.89333 27.6115 8.784C27.6115 9.64267 27.4728 10.4027 27.1955 11.064C26.9182 11.7253 26.5102 12.2453 25.9715 12.624C25.4382 12.9973 24.7768 13.184 23.9875 13.184C23.1982 13.184 22.5342 13.0027 21.9955 12.64C21.4568 12.2773 21.0488 11.768 20.7715 11.112C20.4995 10.4507 20.3635 9.68 20.3635 8.8C20.3635 7.93067 20.5022 7.16533 20.7795 6.504C21.0568 5.84267 21.4648 5.328 22.0035 4.96C22.5475 4.58667 23.2142 4.4 24.0035 4.4ZM24.0035 5.496C23.2782 5.496 22.7288 5.76533 22.3555 6.304C21.9875 6.83733 21.8035 7.66933 21.8035 8.8C21.8035 9.90933 21.9848 10.7333 22.3475 11.272C22.7155 11.8107 23.2622 12.08 23.9875 12.08C24.7128 12.08 25.2568 11.8107 25.6195 11.272C25.9875 10.7333 26.1715 9.904 26.1715 8.784C26.1715 7.664 25.9902 6.83733 25.6275 6.304C25.2648 5.76533 24.7235 5.496 24.0035 5.496ZM30.4693 13V11.968H31.7813V5.608H30.4693V4.576H32.8053L33.0533 6.568C33.3786 5.87467 33.7733 5.33867 34.2373 4.96C34.7013 4.58133 35.3146 4.392 36.0773 4.392C36.3119 4.392 36.5199 4.41067 36.7013 4.448C36.8879 4.48 37.0773 4.52267 37.2693 4.576L36.8773 5.776C36.7013 5.728 36.5413 5.69333 36.3973 5.672C36.2533 5.64533 36.0879 5.632 35.9013 5.632C35.2559 5.632 34.7013 5.86133 34.2373 6.32C33.7733 6.77867 33.4026 7.472 33.1253 8.4V11.968H34.8373V13H30.4693ZM35.9733 7.424V5.592L36.1093 4.576H37.2693L37.0773 7.424H35.9733ZM46.671 12.576C46.383 12.768 46.0337 12.9173 45.623 13.024C45.2123 13.1307 44.8097 13.184 44.415 13.184C43.5083 13.184 42.8097 12.9467 42.319 12.472C41.8283 11.9973 41.583 11.3867 41.583 10.64V5.616H39.647V4.576H41.583V2.664L42.927 2.504V4.576H45.839L45.679 5.616H42.927V10.624C42.927 11.0933 43.0497 11.4507 43.295 11.696C43.5457 11.9413 43.959 12.064 44.535 12.064C44.8497 12.064 45.1403 12.0267 45.407 11.952C45.6737 11.8773 45.9217 11.7813 46.151 11.664L46.671 12.576ZM54.5528 1.016C55.0061 1.016 55.4168 1.056 55.7848 1.136C56.1528 1.216 56.5021 1.328 56.8328 1.472L56.4008 2.472C56.1288 2.35467 55.8408 2.26667 55.5368 2.208C55.2328 2.14933 54.9181 2.12 54.5928 2.12C54.0061 2.12 53.5634 2.23467 53.2648 2.464C52.9714 2.69333 52.8248 3.04533 52.8248 3.52V5.232H55.6808L55.5368 6.288H52.8248V13H51.4808V6.288H49.4728V5.232H51.4808V3.552C51.4808 3.02933 51.6141 2.57867 51.8808 2.2C52.1528 1.82133 52.5208 1.53067 52.9848 1.328C53.4488 1.12 53.9714 1.016 54.5528 1.016ZM62.3785 4.4C63.1732 4.4 63.8372 4.58133 64.3705 4.944C64.9092 5.30133 65.3118 5.808 65.5785 6.464C65.8505 7.12 65.9865 7.89333 65.9865 8.784C65.9865 9.64267 65.8478 10.4027 65.5705 11.064C65.2932 11.7253 64.8852 12.2453 64.3465 12.624C63.8132 12.9973 63.1518 13.184 62.3625 13.184C61.5732 13.184 60.9092 13.0027 60.3705 12.64C59.8318 12.2773 59.4238 11.768 59.1465 11.112C58.8745 10.4507 58.7385 9.68 58.7385 8.8C58.7385 7.93067 58.8772 7.16533 59.1545 6.504C59.4318 5.84267 59.8398 5.328 60.3785 4.96C60.9225 4.58667 61.5892 4.4 62.3785 4.4ZM62.3785 5.496C61.6532 5.496 61.1038 5.76533 60.7305 6.304C60.3625 6.83733 60.1785 7.66933 60.1785 8.8C60.1785 9.90933 60.3598 10.7333 60.7225 11.272C61.0905 11.8107 61.6372 12.08 62.3625 12.08C63.0878 12.08 63.6318 11.8107 63.9945 11.272C64.3625 10.7333 64.5465 9.904 64.5465 8.784C64.5465 7.664 64.3652 6.83733 64.0025 6.304C63.6398 5.76533 63.0985 5.496 62.3785 5.496ZM72.0443 1.184V10.92C72.0443 11.336 72.1723 11.632 72.4283 11.808C72.6896 11.9787 73.0256 12.064 73.4363 12.064C73.6923 12.064 73.9349 12.0373 74.1643 11.984C74.3936 11.9307 74.6229 11.8587 74.8523 11.768L75.2123 12.752C74.9829 12.864 74.6976 12.9627 74.3563 13.048C74.0203 13.1387 73.6389 13.184 73.2123 13.184C72.4656 13.184 71.8603 12.9787 71.3963 12.568C70.9323 12.152 70.7003 11.5787 70.7003 10.848V2.248H68.1163V1.184H72.0443ZM82.622 4.576V11.936H84.998V13H78.678V11.936H81.278V5.64H78.758V4.576H82.622ZM81.55 0.631999C81.8487 0.631999 82.086 0.722666 82.262 0.903999C82.4433 1.08533 82.534 1.30667 82.534 1.568C82.534 1.84 82.4433 2.06933 82.262 2.256C82.086 2.43733 81.8487 2.528 81.55 2.528C81.2673 2.528 81.0353 2.43733 80.854 2.256C80.6727 2.06933 80.582 1.84 80.582 1.568C80.582 1.30667 80.6727 1.08533 80.854 0.903999C81.0353 0.722666 81.2673 0.631999 81.55 0.631999ZM91.1598 4.4C91.9544 4.4 92.6184 4.58133 93.1518 4.944C93.6904 5.30133 94.0931 5.808 94.3598 6.464C94.6318 7.12 94.7678 7.89333 94.7678 8.784C94.7678 9.64267 94.6291 10.4027 94.3518 11.064C94.0744 11.7253 93.6664 12.2453 93.1278 12.624C92.5944 12.9973 91.9331 13.184 91.1438 13.184C90.3544 13.184 89.6904 13.0027 89.1518 12.64C88.6131 12.2773 88.2051 11.768 87.9278 11.112C87.6558 10.4507 87.5197 9.68 87.5197 8.8C87.5197 7.93067 87.6584 7.16533 87.9358 6.504C88.2131 5.84267 88.6211 5.328 89.1598 4.96C89.7038 4.58667 90.3704 4.4 91.1598 4.4ZM91.1598 5.496C90.4344 5.496 89.8851 5.76533 89.5118 6.304C89.1438 6.83733 88.9598 7.66933 88.9598 8.8C88.9598 9.90933 89.1411 10.7333 89.5038 11.272C89.8718 11.8107 90.4184 12.08 91.1438 12.08C91.8691 12.08 92.4131 11.8107 92.7758 11.272C93.1438 10.7333 93.3278 9.904 93.3278 8.784C93.3278 7.664 93.1464 6.83733 92.7838 6.304C92.4211 5.76533 91.8798 5.496 91.1598 5.496ZM97.9935 3.496L104.146 7.296V8.672L98.0735 12.472L97.3455 11.48L102.994 7.992L97.3455 4.512L97.9935 3.496Z" fill="#E58156"/>
<path d="M113.56 3.496L114.208 4.528L108.56 7.992L114.208 11.488L113.488 12.472L107.408 8.672V7.296L113.56 3.496ZM116.402 14.648L115.314 14.168L122.162 0.0479994L123.234 0.575999L116.402 14.648ZM132.052 5.384C132.052 4.81333 131.94 4.36267 131.716 4.032C131.492 3.696 131.185 3.456 130.796 3.312C130.406 3.16267 129.961 3.088 129.46 3.088H127.868V7.792H129.404C129.921 7.792 130.377 7.72267 130.772 7.584C131.166 7.44 131.478 7.19467 131.708 6.848C131.937 6.496 132.052 6.008 132.052 5.384ZM133.54 5.368C133.54 6.22667 133.356 6.91467 132.988 7.432C132.625 7.94933 132.124 8.32533 131.484 8.56C130.844 8.79467 130.108 8.912 129.276 8.912H127.868V13H126.476V1.984H129.292C130.604 1.984 131.638 2.26133 132.396 2.816C133.158 3.36533 133.54 4.216 133.54 5.368ZM139.037 4.4C139.832 4.4 140.496 4.58133 141.029 4.944C141.568 5.30133 141.971 5.808 142.237 6.464C142.509 7.12 142.645 7.89333 142.645 8.784C142.645 9.64267 142.507 10.4027 142.229 11.064C141.952 11.7253 141.544 12.2453 141.005 12.624C140.472 12.9973 139.811 13.184 139.021 13.184C138.232 13.184 137.568 13.0027 137.029 12.64C136.491 12.2773 136.083 11.768 135.805 11.112C135.533 10.4507 135.397 9.68 135.397 8.8C135.397 7.93067 135.536 7.16533 135.813 6.504C136.091 5.84267 136.499 5.328 137.037 4.96C137.581 4.58667 138.248 4.4 139.037 4.4ZM139.037 5.496C138.312 5.496 137.763 5.76533 137.389 6.304C137.021 6.83733 136.837 7.66933 136.837 8.8C136.837 9.90933 137.019 10.7333 137.381 11.272C137.749 11.8107 138.296 12.08 139.021 12.08C139.747 12.08 140.291 11.8107 140.653 11.272C141.021 10.7333 141.205 9.904 141.205 8.784C141.205 7.664 141.024 6.83733 140.661 6.304C140.299 5.76533 139.757 5.496 139.037 5.496ZM145.503 13V11.968H146.815V5.608H145.503V4.576H147.839L148.087 6.568C148.412 5.87467 148.807 5.33867 149.271 4.96C149.735 4.58133 150.348 4.392 151.111 4.392C151.346 4.392 151.554 4.41067 151.735 4.448C151.922 4.48 152.111 4.52267 152.303 4.576L151.911 5.776C151.735 5.728 151.575 5.69333 151.431 5.672C151.287 5.64533 151.122 5.632 150.935 5.632C150.29 5.632 149.735 5.86133 149.271 6.32C148.807 6.77867 148.436 7.472 148.159 8.4V11.968H149.871V13H145.503ZM151.007 7.424V5.592L151.143 4.576H152.303L152.111 7.424H151.007ZM161.705 12.576C161.417 12.768 161.067 12.9173 160.657 13.024C160.246 13.1307 159.843 13.184 159.449 13.184C158.542 13.184 157.843 12.9467 157.353 12.472C156.862 11.9973 156.617 11.3867 156.617 10.64V5.616H154.681V4.576H156.617V2.664L157.961 2.504V4.576H160.873L160.713 5.616H157.961V10.624C157.961 11.0933 158.083 11.4507 158.329 11.696C158.579 11.9413 158.993 12.064 159.569 12.064C159.883 12.064 160.174 12.0267 160.441 11.952C160.707 11.8773 160.955 11.7813 161.185 11.664L161.705 12.576ZM169.586 1.016C170.04 1.016 170.45 1.056 170.818 1.136C171.186 1.216 171.536 1.328 171.866 1.472L171.434 2.472C171.162 2.35467 170.874 2.26667 170.57 2.208C170.266 2.14933 169.952 2.12 169.626 2.12C169.04 2.12 168.597 2.23467 168.298 2.464C168.005 2.69333 167.858 3.04533 167.858 3.52V5.232H170.714L170.57 6.288H167.858V13H166.514V6.288H164.506V5.232H166.514V3.552C166.514 3.02933 166.648 2.57867 166.914 2.2C167.186 1.82133 167.554 1.53067 168.018 1.328C168.482 1.12 169.005 1.016 169.586 1.016ZM177.412 4.4C178.207 4.4 178.871 4.58133 179.404 4.944C179.943 5.30133 180.346 5.808 180.612 6.464C180.884 7.12 181.02 7.89333 181.02 8.784C181.02 9.64267 180.882 10.4027 180.604 11.064C180.327 11.7253 179.919 12.2453 179.38 12.624C178.847 12.9973 178.186 13.184 177.396 13.184C176.607 13.184 175.943 13.0027 175.404 12.64C174.866 12.2773 174.458 11.768 174.18 11.112C173.908 10.4507 173.772 9.68 173.772 8.8C173.772 7.93067 173.911 7.16533 174.188 6.504C174.466 5.84267 174.874 5.328 175.412 4.96C175.956 4.58667 176.623 4.4 177.412 4.4ZM177.412 5.496C176.687 5.496 176.138 5.76533 175.764 6.304C175.396 6.83733 175.212 7.66933 175.212 8.8C175.212 9.90933 175.394 10.7333 175.756 11.272C176.124 11.8107 176.671 12.08 177.396 12.08C178.122 12.08 178.666 11.8107 179.028 11.272C179.396 10.7333 179.58 9.904 179.58 8.784C179.58 7.664 179.399 6.83733 179.036 6.304C178.674 5.76533 178.132 5.496 177.412 5.496ZM187.078 1.184V10.92C187.078 11.336 187.206 11.632 187.462 11.808C187.723 11.9787 188.059 12.064 188.47 12.064C188.726 12.064 188.969 12.0373 189.198 11.984C189.427 11.9307 189.657 11.8587 189.886 11.768L190.246 12.752C190.017 12.864 189.731 12.9627 189.39 13.048C189.054 13.1387 188.673 13.184 188.246 13.184C187.499 13.184 186.894 12.9787 186.43 12.568C185.966 12.152 185.734 11.5787 185.734 10.848V2.248H183.15V1.184H187.078ZM197.656 4.576V11.936H200.032V13H193.712V11.936H196.312V5.64H193.792V4.576H197.656ZM196.584 0.631999C196.882 0.631999 197.12 0.722666 197.296 0.903999C197.477 1.08533 197.568 1.30667 197.568 1.568C197.568 1.84 197.477 2.06933 197.296 2.256C197.12 2.43733 196.882 2.528 196.584 2.528C196.301 2.528 196.069 2.43733 195.888 2.256C195.706 2.06933 195.616 1.84 195.616 1.568C195.616 1.30667 195.706 1.08533 195.888 0.903999C196.069 0.722666 196.301 0.631999 196.584 0.631999ZM206.194 4.4C206.988 4.4 207.652 4.58133 208.186 4.944C208.724 5.30133 209.127 5.808 209.394 6.464C209.666 7.12 209.802 7.89333 209.802 8.784C209.802 9.64267 209.663 10.4027 209.386 11.064C209.108 11.7253 208.7 12.2453 208.162 12.624C207.628 12.9973 206.967 13.184 206.178 13.184C205.388 13.184 204.724 13.0027 204.186 12.64C203.647 12.2773 203.239 11.768 202.962 11.112C202.69 10.4507 202.554 9.68 202.554 8.8C202.554 7.93067 202.692 7.16533 202.97 6.504C203.247 5.84267 203.655 5.328 204.194 4.96C204.738 4.58667 205.404 4.4 206.194 4.4ZM206.194 5.496C205.468 5.496 204.919 5.76533 204.546 6.304C204.178 6.83733 203.994 7.66933 203.994 8.8C203.994 9.90933 204.175 10.7333 204.538 11.272C204.906 11.8107 205.452 12.08 206.178 12.08C206.903 12.08 207.447 11.8107 207.81 11.272C208.178 10.7333 208.362 9.904 208.362 8.784C208.362 7.664 208.18 6.83733 207.818 6.304C207.455 5.76533 206.914 5.496 206.194 5.496ZM213.027 3.496L219.179 7.296V8.672L213.107 12.472L212.379 11.48L218.027 7.992L212.379 4.512L213.027 3.496Z" fill="#E58156"/>
</svg>
