<svg width="30" height="30" viewBox="0 0 30 30" fill="none" xmlns="http://www.w3.org/2000/svg">
<path d="M11.3025 0.86502C15.0839 -0.104705 19.263 0.460373 22.5978 2.51853C26.7979 5.03021 29.5398 9.78133 29.6096 14.672C29.7631 19.6115 27.1886 24.5092 23.0514 27.1953C18.4467 30.2929 12.0769 30.4116 7.37451 27.4674C2.58151 24.6068 -0.216239 18.8371 0.502476 13.2975C1.08139 7.44403 5.60251 2.28135 11.3025 0.865138V0.86502Z" fill="#010101"/>
<path d="M10.7232 3.25818C17.8674 0.397647 26.6302 5.67902 27.3696 13.3395C28.5209 20.2325 22.7999 27.2371 15.8162 27.4395C9.17436 28.1023 2.7558 22.4719 2.56748 15.8023C2.07213 10.4024 5.63028 5.04422 10.7232 3.25818Z" fill="white"/>
<path d="M11.4419 14.2605C14.6443 11.6442 17.7768 8.93715 21.049 6.39758C19.3326 9.03489 17.5675 11.6372 15.8512 14.2743C14.3791 14.2814 12.9071 14.2814 11.4419 14.2604V14.2605ZM14.1489 15.7186C15.628 15.7186 17.1001 15.7186 18.5722 15.7395C15.3489 18.3418 12.2303 21.0697 8.95117 23.6023C10.6675 20.965 12.4326 18.3559 14.1489 15.7186Z" fill="#010101"/>
</svg>
