<svg width="25" height="25" viewBox="0 0 25 25" fill="none" xmlns="http://www.w3.org/2000/svg">
<path d="M25 0H0V25H25V0Z" fill="#1976D2"/>
<path d="M14.9238 11.1111H5.71338V13.3778H9.01685V23.6111H11.6342V13.3778H14.9238V11.1111Z" fill="white"/>
<path d="M23.0514 13.9472C23.0514 13.9472 21.8105 13.1195 20.4077 13.1195C19.0049 13.1195 18.5 13.7861 18.5 14.4986C18.5 16.3375 23.6257 16.1535 23.6257 19.8542C23.6257 25.5549 15.8104 23.0264 15.8104 23.0264V20.2917C15.8104 20.2917 17.3049 21.4181 19.0973 21.4181C20.8896 21.4181 20.8216 20.2458 20.8216 20.0847C20.8216 18.384 15.7417 18.384 15.7417 14.6139C15.7417 9.48821 23.1431 11.5104 23.1431 11.5104L23.0514 13.9472Z" fill="white"/>
</svg>
